Format : AVI
Format/Info : Audio Video Interleave
File size : 1.25 GiB
Duration : 1h 37mn
Overall bit rate : 1 843 Kbps
Writing library : VirtualDub build 32842/release

Source used : Unknown................Thanks
 
http://www.imdb.com/title/tt1409024/

Video
ID : 0
Format : MPEG-4 Visual
Format profile : Advanced Simple@L5
Format settings, BVOP : 2
Format settings, QPel : No
Format settings, GMC : No warppoints
Format settings, Matrix : Default (H.263)
Muxing mode : Packed bitstream
Codec ID : XVID
Codec ID/Hint : XviD
Duration : 1h 37mn
Bit rate : 1 673 Kbps
Width : 672 pixels
Height : 352 pixels
Display aspect ratio : 1.909
Frame rate : 25.000 fps
Color space : YUV
Chroma subsampling : 4:2:0
Bit depth : 8 bits
Scan type : Progressive
Compression mode : Lossy
Bits/(Pixel*Frame) : 0.283
Stream size : 1.13 GiB (91%)
Writing library : XviD 64

Audio
ID : 1
Format : MPEG Audio
Format version : Version 1
Format profile : Layer 3
Codec ID : 55
Codec ID/Hint : MP3
Duration : 1h 37mn
Bit rate mode : Constant
Bit rate : 160 Kbps
Channel(s) : 2 channels
Sampling rate : 48.0 KHz
Compression mode : Lossy
Stream size : 111 MiB (9%)
Alignment : Split accross interleaves
Interleave, duration : 40 ms (1.00 video frame)
Interleave, preload duration : 500 ms
Writing library : LAMEªª§p

Agent J travels in time to MIB's early years in the 1960s, to stop an alien from assassinating his friend Agent K and changing history.

 
http://img88.imageshack.us/img88/1160/vlcsnap2012053119h39m18.png 
http://img534.imageshack.us/img534/8140/vlcsnap2012053119h37m00.png 
http://img507.imageshack.us/img507/482/vlcsnap2012053119h42m17.png